<?xml version="1.0" encoding="UTF-8"?>
<svg version="1.1" xmlns="http://www.w3.org/2000/svg" width="48" height="48">
<path d="M0 0 C1.32 0 2.64 0 4 0 C4 1.32 4 2.64 4 4 C4.66 4 5.32 4 6 4 C6 5.32 6 6.64 6 8 C6.99 8 7.98 8 9 8 C9 9.32 9 10.64 9 12 C13.95 12 18.9 12 24 12 C24 12.99 24 13.98 24 15 C22.68 15 21.36 15 20 15 C20 15.99 20 16.98 20 18 C18.68 18 17.36 18 16 18 C16 18.99 16 19.98 16 21 C15.01 21 14.02 21 13 21 C13 22.65 13 24.3 13 26 C13.66 26 14.32 26 15 26 C15 27.65 15 29.3 15 31 C15.66 31 16.32 31 17 31 C17 32.32 17 33.64 17 35 C17.66 35 18.32 35 19 35 C19 36.65 19 38.3 19 40 C18.01 40 17.02 40 16 40 C16 39.34 16 38.68 16 38 C14.35 38 12.7 38 11 38 C11 37.01 11 36.02 11 35 C9.35 35 7.7 35 6 35 C6 34.01 6 33.02 6 32 C3.36 32 0.72 32 -2 32 C-2 32.99 -2 33.98 -2 35 C-3.65 35 -5.3 35 -7 35 C-7 35.99 -7 36.98 -7 38 C-8.65 38 -10.3 38 -12 38 C-12 38.66 -12 39.32 -12 40 C-12.99 40 -13.98 40 -15 40 C-15 38.35 -15 36.7 -15 35 C-14.34 35 -13.68 35 -13 35 C-13 33.68 -13 32.36 -13 31 C-12.34 31 -11.68 31 -11 31 C-11 29.35 -11 27.7 -11 26 C-10.34 26 -9.68 26 -9 26 C-9 24.35 -9 22.7 -9 21 C-9.99 21 -10.98 21 -12 21 C-12 20.01 -12 19.02 -12 18 C-13.32 18 -14.64 18 -16 18 C-16 17.01 -16 16.02 -16 15 C-17.32 15 -18.64 15 -20 15 C-20 14.01 -20 13.02 -20 12 C-15.05 12 -10.1 12 -5 12 C-5 10.68 -5 9.36 -5 8 C-4.01 8 -3.02 8 -2 8 C-2 6.68 -2 5.36 -2 4 C-1.34 4 -0.68 4 0 4 C0 2.68 0 1.36 0 0 Z " fill="#FFCA28" transform="translate(22,4)"/>
</svg>
